<?xml version="1.0" encoding="UTF-8" standalone="no"?>
<!-- Created with Inkscape (http://www.inkscape.org/) -->

<svg
   xmlns:osb="http://www.openswatchbook.org/uri/2009/osb"
   xmlns:dc="http://purl.org/dc/elements/1.1/"
   xmlns:cc="http://creativecommons.org/ns#"
   xmlns:rdf="http://www.w3.org/1999/02/22-rdf-syntax-ns#"
   xmlns:svg="http://www.w3.org/2000/svg"
   xmlns="http://www.w3.org/2000/svg"
   xmlns:sodipodi="http://sodipodi.sourceforge.net/DTD/sodipodi-0.dtd"
   xmlns:inkscape="http://www.inkscape.org/namespaces/inkscape"
   width="210mm"
   height="297mm"
   viewBox="0 0 210 297"
   version="1.1"
   id="svg5167"
   inkscape:version="0.92.3 (2405546, 2018-03-11)"
   sodipodi:docname="bio_damage_icon.svg">
  <defs
     id="defs5161">
    <linearGradient
       id="linearGradient7204"
       osb:paint="solid">
      <stop
         style="stop-color:#ffdf00;stop-opacity:1;"
         offset="0"
         id="stop7202" />
    </linearGradient>
    <inkscape:path-effect
       effect="bspline"
       id="path-effect5734"
       is_visible="true"
       weight="33.333333"
       steps="2"
       helper_size="0"
       apply_no_weight="true"
       apply_with_weight="true"
       only_selected="false" />
  </defs>
  <sodipodi:namedview
     id="base"
     pagecolor="#ffffff"
     bordercolor="#666666"
     borderopacity="1.0"
     inkscape:pageopacity="0.0"
     inkscape:pageshadow="2"
     inkscape:zoom="0.12374369"
     inkscape:cx="-624.11851"
     inkscape:cy="1681.0277"
     inkscape:document-units="mm"
     inkscape:current-layer="layer1"
     showgrid="false"
     inkscape:window-width="958"
     inkscape:window-height="1008"
     inkscape:window-x="953"
     inkscape:window-y="0"
     inkscape:window-maximized="0" />
  <metadata
     id="metadata5164">
    <rdf:RDF>
      <cc:Work
         rdf:about="">
        <dc:format>image/svg+xml</dc:format>
        <dc:type
           rdf:resource="http://purl.org/dc/dcmitype/StillImage" />
        <dc:title></dc:title>
      </cc:Work>
    </rdf:RDF>
  </metadata>
  <g
     inkscape:label="Layer 1"
     inkscape:groupmode="layer"
     id="layer1">
    <circle
       style="fill:#000000;stroke-width:0.26458332"
       id="path5169"
       cx="100.10345"
       cy="100.47685"
       r="100" />
    <path
       style="fill:none;stroke:#000000;stroke-width:0.26458332px;stroke-linecap:butt;stroke-linejoin:miter;stroke-opacity:1"
       d="m 97.286108,168.71062 c 0,0 -85.526249,-13.36349 0,0 z"
       id="path7252"
       inkscape:connector-curvature="0" />
    <path
       style="fill:#ff0000;stroke:#000000;stroke-width:0.26458332px;stroke-linecap:butt;stroke-linejoin:miter;stroke-opacity:1"
       d="m 176.93242,75.16629 c 0,0 5.50734,15.444265 6.41447,23.51972 0.93568,8.32964 2.96369,17.7752 -1.06907,25.12334 -16.62331,30.2895 -50.46677,60.68167 -84.991712,59.33383 -28.336426,-1.10624 -51.668026,-29.37295 -65.748304,-53.98844 -6.268863,-10.95938 -5.87993,-37.417738 -5.87993,-37.417738 0,0 10.160822,-18.792735 14.967095,-28.33057 4.44706,-8.824992 12.828936,-26.726951 12.828936,-26.726951 0,0 -1.778959,45.874618 8.018085,51.850286 5.934485,3.619716 17.115769,5.56219 21.916101,0.53454 C 95.32599,76.561091 101.02788,9.4179884 101.02788,9.4179884 c 0,0 20.89512,28.5105916 29.39964,38.4868126 6.48248,7.604268 -0.53453,45.970357 -0.53453,45.970357 0,0 -33.971797,17.304112 -18.17433,33.141422 11.14176,11.16985 32.77962,-4.86909 44.90128,-14.9671 10.78388,-8.98356 20.31248,-36.88319 20.31248,-36.88319 z"
       id="path7279"
       inkscape:connector-curvature="0"
       sodipodi:nodetypes="csssscscsscscssc" />
    <path
       style="fill:#ff9100;fill-opacity:1;stroke:#000000;stroke-width:0.24071884px;stroke-linecap:butt;stroke-linejoin:miter;stroke-opacity:1"
       d="m 177.52966,93.88471 c 0,0 -1.63131,2.173396 -0.75985,9.13132 0.89889,7.17695 -3.7674,13.04752 -7.64161,19.37878 -15.96983,26.09787 -40.42118,53.5367 -73.588875,52.37538 -27.222457,-0.95313 -44.291452,-27.98085 -57.818205,-49.18991 -6.022417,-9.44276 0,0 0,0 0,0 -1.038241,-17.14222 0.177308,-27.250038 1.041359,-8.659357 11.816925,-45.527128 11.816925,-45.527128 0,0 -2.464984,40.282182 6.946928,45.430905 5.701182,3.118801 22.517385,6.757361 27.129005,2.425471 11.468593,-10.772955 22.558994,-64.882643 22.558994,-64.882643 0,0 7.24475,23.22879 15.41494,31.824446 6.22764,6.551947 -22.211469,43.663617 -22.211469,43.663617 0,0 -3.722073,16.46724 11.454379,30.11289 10.70374,9.62411 30.74615,-5.13466 42.39127,-13.83524 10.35996,-7.74036 24.13026,-33.65785 24.13026,-33.65785 z"
       id="path7279-1"
       inkscape:connector-curvature="0"
       sodipodi:nodetypes="csssscscsscscssc" />
    <path
       style="fill:#ffe200;fill-opacity:0.84422111;stroke:#000000;stroke-width:0.17873281px;stroke-linecap:butt;stroke-linejoin:miter;stroke-opacity:1"
       d="m 166.93194,116.73146 c 0,0 -0.94576,-4.03574 -0.22425,0.59738 0.74422,4.77897 -9.38263,17.5728 -12.5902,21.78865 -13.22192,17.37799 -28.93022,31.49115 -56.39078,30.71785 -22.538309,-0.63466 -26.830393,-15.11702 -45.51316,-33.51598 -5.717635,-5.63077 0,0 0,0 0,0 -9.679486,-14.08731 -8.673095,-20.81788 0.862174,-5.76607 2.300054,-30.315504 2.300054,-30.315504 0,0 1.700932,26.288474 9.49335,29.716894 4.720182,2.07674 18.642831,4.49957 22.460933,1.61507 9.495201,-7.17347 28.499818,-48.472406 28.499818,-48.472406 0,0 -6.764355,-5.72365 0,0 5.15606,4.3628 -15.449587,55.534316 -15.449587,55.534316 0,0 -3.08162,10.96516 9.483427,20.0515 8.86195,6.40848 30.36938,4.32945 40.01073,-1.46407 8.57733,-5.15413 26.59276,-25.43582 26.59276,-25.43582 z"
       id="path7279-1-6"
       inkscape:connector-curvature="0"
       sodipodi:nodetypes="csssscscsscscssc" />
  </g>
</svg>
